<svg width="10" height="10" viewBox="0 0 10 10" fill="none" xmlns="http://www.w3.org/2000/svg">
<g clip-path="url(#clip0_1:3)">
<path d="M1.25 3.125V9.375C1.25 9.71875 1.53125 10 1.875 10H7.5C7.84375 10 8.125 9.71875 8.125 9.375V3.125H1.25ZM3.125 8.75H2.5V4.375H3.125V8.75ZM4.375 8.75H3.75V4.375H4.375V8.75ZM5.625 8.75H5V4.375H5.625V8.75ZM6.875 8.75H6.25V4.375H6.875V8.75Z" fill="white"/>
<path d="M8.28125 1.25H6.25V0.46875C6.24951 0.344582 6.19996 0.22564 6.11216 0.137839C6.02436 0.0500383 5.90542 0.000493716 5.78125 0L3.59375 0C3.46958 0.000493716 3.35064 0.0500383 3.26284 0.137839C3.17504 0.22564 3.12549 0.344582 3.125 0.46875V1.25H1.09375C0.969531 1.25033 0.850494 1.29982 0.762658 1.38766C0.674822 1.47549 0.62533 1.59453 0.625 1.71875V2.5H8.75V1.71875C8.74967 1.59453 8.70018 1.47549 8.61234 1.38766C8.52451 1.29982 8.40547 1.25033 8.28125 1.25ZM5.625 1.25H3.75V0.633125H5.625V1.25Z" fill="white"/>
</g>
<defs>
<clipPath id="clip0_1:3">
<rect width="10" height="10" fill="white"/>
</clipPath>
</defs>
</svg>
