<svg width="50" height="50" viewBox="0 0 50 50" fill="none" xmlns="http://www.w3.org/2000/svg">
<path d="M13.6028 17.5937C13.6028 17.5937 4.92222 19.8507 7.52639 31.309C10.1306 42.7673 18.6375 40.684 18.6375 40.684L21.9361 39.816L28.5333 39.6423C28.5333 39.6423 34.7833 41.5521 38.4292 39.4687C42.075 37.3854 43.8111 30.9618 43.8111 30.9618V26.1007L42.075 22.2812L39.1236 19.3299L37.3875 17.941C37.3875 17.941 42.5959 13.0799 40.8597 9.95486C39.1236 6.82986 37.9084 5.9618 32.8736 10.1285L32.0056 10.8229C32.0056 10.8229 25.2347 7.5243 18.4639 10.6493C18.4639 10.6493 14.9917 5.09375 10.3042 8.56597L9.95695 12.0382C9.95695 12.0382 11.1722 17.5937 13.6028 17.5937Z" fill="#F4AA41"/>
<path d="M6.88957 28.3C6.88957 28.3 13.5444 35.4757 22.2833 29.8049C22.2833 29.8049 23.093 32.8722 24.9451 32.409C26.7972 31.9458 28.3597 30.0361 28.3597 30.0361C28.3597 30.0361 38.834 33.9132 44.2736 28.2424C44.2736 28.2424 44.65 34.7236 38.516 39.816C38.516 39.816 32.8736 41.8417 28.5333 39.6424L21.7042 39.816C21.7042 39.816 16.4382 41.6681 12.7923 39.7007C9.14651 37.7333 6.07915 30.7889 6.88957 28.3V28.3Z" fill="white"/>
<path d="M22.2833 29.8049L28.0993 29.7472C28.0993 29.7472 27.6215 32.4812 25.4514 32.4812C23.2813 32.4812 22.2833 29.8049 22.2833 29.8049Z" fill="#EA5A47"/>
<path d="M19.3153 24.3653C20.4659 24.3653 21.3986 23.4325 21.3986 22.2819C21.3986 21.1314 20.4659 20.1986 19.3153 20.1986C18.1647 20.1986 17.2319 21.1314 17.2319 22.2819C17.2319 23.4325 18.1647 24.3653 19.3153 24.3653Z" fill="black"/>
<path d="M30.8604 24.3653C32.011 24.3653 32.9438 23.4325 32.9438 22.2819C32.9438 21.1314 32.011 20.1986 30.8604 20.1986C29.7098 20.1986 28.7771 21.1314 28.7771 22.2819C28.7771 23.4325 29.7098 24.3653 30.8604 24.3653Z" fill="black"/>
<path d="M22.484 30.3861C22.484 30.3861 23.0049 32.1806 25.0882 32.4118C27.1715 32.6431 27.866 30.3861 27.866 30.3861" stroke="black" stroke-width="0.277778" stroke-miterlimit="10" stroke-linecap="round" stroke-linejoin="round"/>
<path d="M25.0882 32.4118L25.175 35.4208C26.3062 36.1472 26.9611 36.4694 28.6757 36.1153" stroke="black" stroke-width="0.277778" stroke-miterlimit="10" stroke-linecap="round" stroke-linejoin="round"/>
<path d="M21.7896 36.1153C23.1493 36.3472 23.8153 36.1153 25.175 35.4208" stroke="black" stroke-width="0.277778" stroke-miterlimit="10" stroke-linecap="round" stroke-linejoin="round"/>
<path d="M29.0847 39.3562C32.8326 41.2833 35.8104 40.5521 37.9403 39.1875" stroke="black" stroke-width="0.277778" stroke-miterlimit="10" stroke-linecap="round" stroke-linejoin="round"/>
<path d="M7.65972 30.8875C5.03125 21.4958 13.9194 17.8861 13.9194 17.8861C11.8361 17.1917 8.13194 11.2312 11.1993 8.45347C14.2667 5.67569 18.491 10.7681 18.491 10.7681C18.491 10.7681 25.3271 7.875 32.3833 10.7681C32.3833 10.7681 36.6083 5.67569 39.675 8.45347C42.7417 11.2312 39.0389 17.1917 36.9556 17.8861C36.9556 17.8861 45.6924 21.4229 43.2792 30.6486" stroke="black" stroke-width="0.277778" stroke-miterlimit="10" stroke-linecap="round" stroke-linejoin="round"/>
<path d="M13.3479 39.4382C15.4437 40.634 18.2785 41.1611 21.7896 39.3563" stroke="black" stroke-width="0.277778" stroke-miterlimit="10" stroke-linecap="round" stroke-linejoin="round"/>
<path d="M18.491 30.2125C18.491 30.2125 6.68542 32.0646 4.7757 38.3722" stroke="black" stroke-width="0.277778" stroke-miterlimit="10" stroke-linecap="round" stroke-linejoin="round"/>
<path d="M19.0118 32.7965C19.0118 32.7965 10.5035 34.3361 8.94236 42.0187" stroke="black" stroke-width="0.277778" stroke-miterlimit="10" stroke-linecap="round" stroke-linejoin="round"/>
<path d="M32.3833 30.2125C32.3833 30.2125 44.1889 32.0646 46.0986 38.3722" stroke="black" stroke-width="0.277778" stroke-miterlimit="10" stroke-linecap="round" stroke-linejoin="round"/>
<path d="M31.8625 32.7965C31.8625 32.7965 40.0174 35.4215 41.9319 42.0187" stroke="black" stroke-width="0.277778" stroke-miterlimit="10" stroke-linecap="round" stroke-linejoin="round"/>
</svg>
